HIERARCHY
ROOT Hips
{
	OFFSET -3.958830 18.904000 13.208200
	CHANNELS 6 Xposition Yposition Zposition Zrotation Yrotation Xrotation 
	JOINT LHipJoint
	{
		OFFSET 0.000000 0.000000 0.000000
		CHANNELS 3 Zrotation Yrotation Xrotation
		JOINT LeftUpLeg
		{
			OFFSET 1.800000 -1.400000 0.085000
			CHANNELS 3 Zrotation Yrotation Xrotation
			JOINT LeftLeg
			{
				OFFSET 2.215000 -6.000000 0.000000
				CHANNELS 3 Zrotation Yrotation Xrotation
				JOINT LeftFoot
				{
					OFFSET 2.500000 -6.900000 0.000000
					CHANNELS 3 Zrotation Yrotation Xrotation
					JOINT LeftToeBase
					{
						OFFSET 0.200000 -0.500000 1.950000
						CHANNELS 3 Zrotation Yrotation Xrotation
						End Site
						{
							OFFSET 0.000000 0.000000 0.000000
						}
					}
				}
			}
		}
	}
	JOINT RHipJoint
	{
		OFFSET 0.000000 0.000000 0.000000
		CHANNELS 3 Zrotation Yrotation Xrotation
		JOINT RightUpLeg
		{
			OFFSET -1.800000 -1.400000 0.085000
			CHANNELS 3 Zrotation Yrotation Xrotation
			JOINT RightLeg
			{
				OFFSET -2.215000 -6.000000 0.000000
				CHANNELS 3 Zrotation Yrotation Xrotation
				JOINT RightFoot
				{
					OFFSET -2.500000 -6.900000 0.000000
					CHANNELS 3 Zrotation Yrotation Xrotation
					JOINT RightToeBase
					{
						OFFSET -0.200000 -0.500000 1.950000
						CHANNELS 3 Zrotation Yrotation Xrotation
						End Site
						{
							OFFSET 0.000000 0.000000 0.000000
						}
					}
				}
			}
		}
	}
	JOINT LowerBack
	{
		OFFSET 0.000000 0.000000 0.000000
		CHANNELS 3 Zrotation Yrotation Xrotation
		JOINT Spine
		{
			OFFSET -0.087000 1.940000 -0.288900
			CHANNELS 3 Zrotation Yrotation Xrotation
			JOINT Spine1
			{
				OFFSET 0.000000 1.950000 0.060000
				CHANNELS 3 Zrotation Yrotation Xrotation
				JOINT Neck
				{
					OFFSET 0.000000 0.000000 0.000000
					CHANNELS 3 Zrotation Yrotation Xrotation
					JOINT Neck1
					{
						OFFSET 0.000000 1.600000 0.340000
						CHANNELS 3 Zrotation Yrotation Xrotation
						JOINT Head
						{
							OFFSET 0.000000 1.667000 -0.240000
							CHANNELS 3 Zrotation Yrotation Xrotation
							End Site
							{
								OFFSET 0.000000 0.000000 0.000000
							}
						}
					}
				}
				JOINT LeftShoulder
				{
					OFFSET 0.000000 0.000000 0.000000
					CHANNELS 3 Zrotation Yrotation Xrotation
					JOINT LeftArm
					{
						OFFSET 2.700000 1.550000 -0.730000
						CHANNELS 3 Zrotation Yrotation Xrotation
						JOINT LeftForeArm
						{
							OFFSET 5.450000 0.000000 0.000000
							CHANNELS 3 Zrotation Yrotation Xrotation
							JOINT LeftHand
							{
								OFFSET 3.450000 0.000000 0.000000
								CHANNELS 3 Zrotation Yrotation Xrotation
								JOINT LeftHandIndex1
								{
									OFFSET 0.750000 0.000000 0.000000
									CHANNELS 3 Zrotation Yrotation Xrotation
									End Site
									{
										OFFSET 0.000000 0.000000 0.000000
									}
								}
							}
						}
					}
				}
				JOINT RightShoulder
				{
					OFFSET 0.000000 0.000000 0.000000
					CHANNELS 3 Zrotation Yrotation Xrotation
					JOINT RightArm
					{
						OFFSET -2.700000 1.550000 -0.730000
						CHANNELS 3 Zrotation Yrotation Xrotation
						JOINT RightForeArm
						{
							OFFSET -5.450000 0.000000 0.000000
							CHANNELS 3 Zrotation Yrotation Xrotation
							JOINT RightHand
							{
								OFFSET -3.450000 0.000000 0.000000
								CHANNELS 3 Zrotation Yrotation Xrotation
								JOINT RightHandIndex1
								{
									OFFSET -0.750000 0.000000 0.000000
									CHANNELS 3 Zrotation Yrotation Xrotation
									End Site
									{
										OFFSET 0.000000 0.000000 0.000000
									}
								}
							}
						}
					}
				}
			}
		}
	}
}
MOTION
Frames: 11
Frame Time: 0.016667
-0.719020 15.583790 -5.934580 -0.703314 -8.947779 -7.283016 -15.544464 8.905210 6.851775 34.419607 4.463894 -39.426839 -57.878946 38.730705 34.208793 2.126798 12.974343 0.238774 0.730920 0.520010 0.417070 18.644470 -7.118526 4.388917 -48.619733 7.827068 -18.647939 61.515197 -25.740472 22.018239 -2.202064 -9.386884 1.191497 0.041510 -0.283910 0.121310 -3.888126 -1.109647 -10.827974 26.029561 -3.298178 38.357043 -6.692582 5.450351 2.372040 4.385220 -5.441583 -16.778196 -12.036491 -1.483478 66.542995 15.851870 -14.034790 -30.213310 -31.305827 -15.772879 8.267102 -54.181346 17.618885 -20.889297 26.634349 -45.617924 -11.818439 -2.629586 2.851662 0.955490 -0.541170 0.527400 0.274920 22.360806 28.566250 12.445119 47.616007 11.372439 -9.290088 123.931111 55.968907 66.836958 2.508867 -1.398941 0.120230 0.246850 -0.256040 -0.102530 
-0.722420 15.532110 -5.931560 -0.533966 -9.028636 -7.686404 -15.512850 8.828299 6.842613 34.405998 5.042741 -39.743793 -57.452144 40.002775 35.337401 2.179600 13.070727 0.225149 0.730100 0.530580 0.387370 18.688539 -7.146046 4.428330 -49.668868 8.089856 -18.781217 62.608139 -26.304661 22.000718 -2.212828 -9.445710 1.182521 0.049060 -0.271520 0.107670 -3.998148 -0.909908 -10.828288 27.630843 -3.409058 37.334598 -6.478320 5.277423 4.295784 4.694083 -6.028319 -17.409340 -12.979501 -1.388007 66.796544 16.653800 -15.301270 -30.094480 -31.792094 -17.137021 8.751569 -54.908462 16.819450 -20.115561 32.195794 -42.356219 -12.807576 -2.651084 2.868388 0.926290 -0.543610 0.509780 0.287720 22.476422 30.512651 13.132020 46.743690 13.454503 -9.824615 128.080152 58.581030 74.604602 2.529770 -1.228911 0.129380 0.250570 -0.258420 -0.077360 
-0.722870 15.488100 -5.925520 -0.341762 -8.983284 -8.037357 -15.479647 8.745990 6.838968 34.291726 5.467551 -40.095183 -57.194155 41.044267 36.208757 2.206868 13.165401 0.212095 0.725610 0.525920 0.376320 18.729384 -7.208094 4.443579 -50.455497 8.284205 -18.844603 63.234770 -26.915730 22.202571 -2.222405 -9.508856 1.167133 0.053730 -0.256470 0.102950 -4.100881 -0.668302 -10.833479 28.992036 -3.206298 36.192188 -6.124137 5.263734 6.088595 5.002840 -5.862318 -17.911550 -12.226379 -2.248937 66.761439 16.652520 -16.200380 -29.815580 -31.470481 -18.396607 9.219044 -55.681218 15.702364 -19.223846 36.070550 -39.155731 -13.083154 -2.694927 2.883425 0.911040 -0.535530 0.494480 0.292190 21.715205 31.799777 13.629804 46.313406 15.269049 -10.749941 132.605526 60.901497 83.123582 2.507150 -1.039615 0.125490 0.260060 -0.253970 -0.069140 
-0.717750 15.463160 -5.924590 -0.150482 -8.958004 -8.617511 -15.464163 8.754606 6.799534 33.939757 5.702771 -40.052530 -56.257206 41.820103 37.363283 2.230979 13.273753 0.198114 0.719480 0.519960 0.362100 18.740823 -7.246979 4.450528 -51.068035 8.593109 -18.621619 63.668618 -27.317074 22.376836 -2.226545 -9.555537 1.160373 0.060510 -0.241400 0.087330 -4.133192 -0.614216 -10.823009 30.194844 -3.146749 35.632615 -5.609629 5.132716 7.754980 5.383085 -5.952129 -18.599252 -12.496874 -2.660522 66.699045 16.535640 -17.247690 -29.659960 -31.473038 -19.980896 9.757064 -56.016005 14.751338 -18.199835 38.544711 -35.350587 -12.611659 -2.727952 2.910879 0.897720 -0.532600 0.477430 0.301700 21.229463 33.529030 14.234565 44.640396 16.843578 -12.007045 137.479395 62.883544 92.317332 2.434772 -0.883757 0.114570 0.279870 -0.253070 -0.059770 
-0.713680 15.455440 -5.928690 0.044465 -8.892170 -9.326428 -15.451474 8.776611 6.762154 33.574740 5.789433 -39.902588 -55.053016 42.371524 38.601313 2.258951 13.379806 0.178603 0.723620 0.532490 0.357680 18.741983 -7.305913 4.442497 -51.345155 8.881582 -18.278968 63.626232 -27.622508 22.720733 -2.231911 -9.600472 1.149853 0.071200 -0.235640 0.080670 -4.143310 -0.563425 -10.815399 31.207387 -3.067105 35.290379 -5.093958 4.964264 9.629280 5.876021 -5.835966 -19.386113 -12.264735 -3.372806 66.512986 15.998180 -18.035610 -29.679580 -31.714856 -21.829515 10.355611 -55.560557 13.791513 -17.238432 41.032468 -32.129304 -12.311474 -2.755845 2.954030 0.878670 -0.529450 0.471390 0.310980 20.771173 35.467695 14.935175 42.588461 18.369398 -13.788506 143.671258 65.124030 103.846034 2.303871 -0.786746 0.117470 0.291480 -0.259220 -0.047730 
-0.708150 15.451900 -5.932810 0.390206 -8.640656 -9.987054 -15.441365 8.811765 6.705625 32.835379 5.674459 -39.851370 -53.453215 42.873111 40.157748 2.287002 13.522226 0.144513 0.726330 0.548860 0.353750 18.736505 -7.369258 4.440826 -51.707223 9.130650 -17.869068 63.577683 -27.856715 22.978519 -2.232952 -9.643962 1.144176 0.083410 -0.228180 0.075020 -4.132290 -0.517546 -10.808449 31.721799 -2.684556 35.070571 -4.215049 4.856028 11.188890 6.113463 -5.242657 -19.777603 -10.887015 -4.584533 65.553190 15.524310 -18.299930 -29.842300 -31.500141 -23.131828 10.785545 -54.743999 12.672015 -15.919928 41.988138 -28.751112 -11.278341 -2.794925 2.994029 0.857870 -0.517560 0.462350 0.315350 20.228102 36.495450 15.245069 40.706888 20.088457 -14.970471 151.641479 67.481626 117.701623 2.124607 -0.833503 0.119310 0.300130 -0.263010 -0.040640 
-0.699350 15.455160 -5.937310 0.600605 -8.353892 -10.480991 -15.433354 8.829047 6.667325 32.208244 5.534631 -39.904546 -51.725051 43.313980 41.814385 2.282312 13.714019 0.089100 0.718930 0.534140 0.359980 18.729755 -7.436362 4.430639 -51.790062 9.311391 -17.459465 63.321153 -27.918535 23.124662 -2.222592 -9.674306 1.127901 0.093610 -0.215560 0.079700 -4.117780 -0.437101 -10.808282 32.130550 -2.152373 34.649955 -3.173521 4.792181 12.687187 6.296325 -4.270219 -20.122535 -8.463265 -6.134406 64.229510 14.481640 -18.153440 -29.481700 -31.034359 -24.165230 11.197058 -53.951099 11.767668 -14.976982 43.573898 -26.729589 -10.955297 -2.845782 3.012871 0.854890 -0.495020 0.446620 0.306820 19.437130 37.075376 15.464578 38.726607 21.908006 -15.706054 162.863336 70.013101 134.603807 1.918559 -1.032621 0.099570 0.308000 -0.249360 -0.055840 
-0.686570 15.481170 -5.946870 0.861275 -8.431395 -11.426011 -15.446517 8.964156 6.571918 31.397419 5.403054 -39.244472 -49.694223 43.455622 43.463703 2.246244 13.896868 0.026193 0.724960 0.530190 0.386710 18.684980 -7.494833 4.408312 -51.517943 9.782262 -16.832162 62.392414 -27.785853 23.639236 -2.219208 -9.696646 1.114836 0.114620 -0.211980 0.074540 -4.022196 -0.525140 -10.772242 32.351785 -1.757940 35.099582 -2.338680 4.736912 14.437445 6.700552 -3.333107 -20.746334 -6.318305 -7.198036 63.280524 13.711560 -17.447670 -30.229680 -30.509307 -25.343225 11.605231 -52.829051 11.071046 -14.354719 45.052581 -25.412450 -10.965221 -2.876598 2.999848 0.884700 -0.486070 0.445350 0.295960 18.147890 37.966785 15.945141 35.992054 24.189717 -16.037517 -178.703642 72.063174 157.348967 1.696458 -1.382513 0.064130 0.338690 -0.238500 -0.086370 
-0.674970 15.517420 -5.953180 1.093898 -8.462467 -12.231643 -15.479563 9.137751 6.481557 30.441315 5.161401 -38.755952 -47.085629 43.391816 45.482393 2.243179 14.097915 -0.045414 0.735580 0.537330 0.418460 18.617166 -7.527978 4.374363 -50.997246 10.198024 -16.228069 61.107116 -27.511759 24.207011 -2.208261 -9.712474 1.096105 0.128050 -0.224480 0.080720 -3.863295 -0.723305 -10.744214 32.136743 -1.227284 35.661960 -1.190875 4.781828 15.807267 6.952104 -2.377857 -21.357727 -4.201561 -8.321407 62.116666 12.547040 -16.837010 -30.312640 -29.854818 -26.008102 11.841692 -51.823454 10.639087 -14.026420 46.194436 -25.118673 -11.252367 -2.895525 3.007732 0.890240 -0.477350 0.449560 0.282500 16.946138 38.310619 16.513774 32.833336 26.238425 -15.159781 -155.112624 71.989092 -177.625808 1.547746 -1.794835 0.057010 0.337180 -0.239320 -0.107720 
-0.662040 15.558890 -5.952030 1.269931 -8.531414 -12.686961 -15.522065 9.311589 6.398991 29.361128 4.845764 -38.594519 -43.944967 43.162937 47.884742 2.273165 14.329532 -0.124573 0.737480 0.544390 0.439830 18.541395 -7.553935 4.329973 -50.274500 10.510466 -15.839183 59.507520 -27.233636 24.917061 -2.188324 -9.736976 1.071642 0.129280 -0.240450 0.100200 -3.679998 -0.946698 -10.727457 31.627188 -0.429415 36.051027 0.309247 5.066067 16.743795 6.928798 -1.354034 -21.942156 -1.901936 -9.594758 60.632624 10.873630 -16.355370 -29.413590 -28.797873 -26.023756 11.829265 -51.014906 10.367420 -13.881148 46.169126 -26.161321 -11.688797 -2.909452 3.022458 0.868210 -0.458880 0.453710 0.268540 15.799667 37.750919 17.286483 29.962505 28.087863 -11.622474 -131.195907 67.058715 -152.268121 1.785154 -1.743430 0.072930 0.307660 -0.243420 -0.116410 
-0.646790 15.604230 -5.958130 1.381335 -8.567854 -13.067449 -15.563627 9.484613 6.295863 27.995073 4.320158 -38.615605 -40.103208 42.591595 50.796790 2.283255 14.625116 -0.231498 0.736110 0.539630 0.457970 18.462061 -7.596102 4.288444 -49.318159 10.770766 -15.583687 57.757193 -26.841426 25.638558 -2.159878 -9.759317 1.046189 0.130410 -0.253960 0.125280 -3.489030 -1.156489 -10.713130 31.066782 0.343437 36.659341 1.510511 5.464195 17.399462 6.939511 -0.256441 -22.366148 0.623886 -10.875310 58.659226 9.320420 -15.650380 -28.626220 -27.425684 -25.848516 11.841573 -49.721912 10.246722 -13.790676 45.795891 -28.069681 -12.379487 -2.926575 3.034757 0.856530 -0.434300 0.450810 0.249370 14.272476 36.838104 17.921074 27.027167 30.098058 -10.218937 -117.751950 61.151360 -127.433669 2.679355 -0.128810 0.079720 0.271890 -0.237690 -0.135940 
